# xmcd CD database file
#
# Track frame offsets:
#       150
#       18751
#       35025
#       51151
#       68767
#       83317
#       94702
#       121352
#       135603
#       151045
#       168453
#       184428
#       197553
#
# Disc length: 3012 seconds
#
# Revision: 0
# Processed by: cddbd v1.5.2PL0 Copyright (c) Steve Scherf et al.
# Submitted via: jack 3.1.1
#
DISCID=a00bc20d
DTITLE=Ian Kent and the Immigrants - Almost Gone
DYEAR=2010
DGENRE=blues
TTITLE0=It's All Over
TTITLE1=Tell Me You Love Me
TTITLE2=Lucky For You
TTITLE3=Broken Dreams
TTITLE4=Loving Crimes
TTITLE5=X-pat Blues
TTITLE6=Wally
TTITLE7=One Track Mind
TTITLE8=Almost Gone
TTITLE9=The House By the Sea
TTITLE10=Just Say No
TTITLE11=Trick Bag
TTITLE12=When My Time Comes
EXTD=
EXTT0=
EXTT1=
EXTT2=
EXTT3=
EXTT4=
EXTT5=
EXTT6=
EXTT7=
EXTT8=
EXTT9=
EXTT10=
EXTT11=
EXTT12=
PLAYORDER=
